# xmcd CD database file
#
# Track frame offsets:
#	150
#	15468
#	34690
#	50163
#	68188
#	89955
#	105293
#	120800
#	137183
#	157250
#	173868
#	190868
#	232220
#
# Disc length: 3294 seconds
#
# Revision: 9
# Processed by: cddbd v1.5.2PL0 Copyright (c) Steve Scherf et al.
# Submitted via: CDex 1.51
#
DISCID=b40cdc0d
DTITLE=Ash - Meltdown
DYEAR=2004
DGENRE=Rock
TTITLE0=Meltdown
TTITLE1=Orpheus
TTITLE2=Evil Eye
TTITLE3=Clones
TTITLE4=Starcrossed
TTITLE5=Out Of The Blue
TTITLE6=Renegade Cavalcade
TTITLE7=Detonator
TTITLE8=On A Wave
TTITLE9=Won't Be Saved
TTITLE10=Vampire Love
TTITLE11=Tinseltown
TTITLE12=Everybody's Happy Nowadays
EXTD=YEAR: 2004
EXTT0=
EXTT1=
EXTT2=
EXTT3=
EXTT4=
EXTT5=
EXTT6=
EXTT7=
EXTT8=
EXTT9=
EXTT10=
EXTT11=
EXTT12=
PLAYORDER=
